<svg width="896" height="171" viewBox="0 0 896 171" fill="none" xmlns="http://www.w3.org/2000/svg">
<circle cx="792.138" cy="55.1379" r="4.13793" fill="#EDF4F8" fill-opacity="0.2"/>
<circle cx="792.138" cy="67.5518" r="4.13793" fill="#EDF4F8" fill-opacity="0.2"/>
<circle cx="792.138" cy="79.9656" r="4.13793" fill="#EDF4F8" fill-opacity="0.2"/>
<circle cx="792.138" cy="92.3794" r="4.13793" fill="#EDF4F8" fill-opacity="0.2"/>
<circle cx="792.138" cy="104.793" r="4.13793" fill="#EDF4F8" fill-opacity="0.2"/>
<circle cx="792.138" cy="117.207" r="4.13793" fill="#EDF4F8" fill-opacity="0.2"/>
<circle cx="792.138" cy="129.621" r="4.13793" fill="#EDF4F8" fill-opacity="0.2"/>
<circle cx="792.138" cy="142.034" r="4.13793" fill="#EDF4F8" fill-opacity="0.2"/>
<circle cx="792.138" cy="154.448" r="4.13793" fill="#EDF4F8" fill-opacity="0.2"/>
<circle cx="792.138" cy="166.862" r="4.13793" fill="#EDF4F8" fill-opacity="0.2"/>
<circle cx="804.552" cy="55.1379" r="4.13793" fill="#EDF4F8" fill-opacity="0.2"/>
<circle cx="804.552" cy="67.5518" r="4.13793" fill="#EDF4F8" fill-opacity="0.2"/>
<circle cx="804.552" cy="79.9656" r="4.13793" fill="#EDF4F8" fill-opacity="0.2"/>
<circle cx="804.552" cy="92.3794" r="4.13793" fill="#EDF4F8" fill-opacity="0.2"/>
<circle cx="804.552" cy="104.793" r="4.13793" fill="#EDF4F8" fill-opacity="0.2"/>
<circle cx="804.552" cy="117.207" r="4.13793" fill="#EDF4F8" fill-opacity="0.2"/>
<circle cx="804.552" cy="129.621" r="4.13793" fill="#EDF4F8" fill-opacity="0.2"/>
<circle cx="804.552" cy="142.034" r="4.13793" fill="#EDF4F8" fill-opacity="0.2"/>
<circle cx="804.552" cy="154.448" r="4.13793" fill="#EDF4F8" fill-opacity="0.2"/>
<circle cx="804.552" cy="166.862" r="4.13793" fill="#EDF4F8" fill-opacity="0.2"/>
<circle cx="816.966" cy="55.1379" r="4.13793" fill="#EDF4F8" fill-opacity="0.2"/>
<circle cx="816.966" cy="67.5518" r="4.13793" fill="#EDF4F8" fill-opacity="0.2"/>
<circle cx="816.966" cy="79.9656" r="4.13793" fill="#EDF4F8" fill-opacity="0.2"/>
<circle cx="816.966" cy="92.3794" r="4.13793" fill="#EDF4F8" fill-opacity="0.2"/>
<circle cx="816.966" cy="104.793" r="4.13793" fill="#EDF4F8" fill-opacity="0.2"/>
<circle cx="816.966" cy="117.207" r="4.13793" fill="#EDF4F8" fill-opacity="0.2"/>
<circle cx="816.966" cy="129.621" r="4.13793" fill="#EDF4F8" fill-opacity="0.2"/>
<circle cx="816.966" cy="142.034" r="4.13793" fill="#EDF4F8" fill-opacity="0.2"/>
<circle cx="816.966" cy="154.448" r="4.13793" fill="#EDF4F8" fill-opacity="0.2"/>
<circle cx="816.966" cy="166.862" r="4.13793" fill="#EDF4F8" fill-opacity="0.2"/>
<circle cx="829.379" cy="55.1379" r="4.13793" fill="#EDF4F8" fill-opacity="0.2"/>
<circle cx="829.379" cy="67.5518" r="4.13793" fill="#EDF4F8" fill-opacity="0.2"/>
<circle cx="829.379" cy="79.9656" r="4.13793" fill="#EDF4F8" fill-opacity="0.2"/>
<circle cx="829.379" cy="92.3794" r="4.13793" fill="#EDF4F8" fill-opacity="0.2"/>
<circle cx="829.379" cy="104.793" r="4.13793" fill="#EDF4F8" fill-opacity="0.2"/>
<circle cx="829.379" cy="117.207" r="4.13793" fill="#EDF4F8" fill-opacity="0.2"/>
<circle cx="829.379" cy="129.621" r="4.13793" fill="#EDF4F8" fill-opacity="0.2"/>
<circle cx="829.379" cy="142.034" r="4.13793" fill="#EDF4F8" fill-opacity="0.2"/>
<circle cx="829.379" cy="154.448" r="4.13793" fill="#EDF4F8" fill-opacity="0.2"/>
<circle cx="829.379" cy="166.862" r="4.13793" fill="#EDF4F8" fill-opacity="0.2"/>
<circle cx="841.793" cy="55.1379" r="4.13793" fill="#EDF4F8" fill-opacity="0.2"/>
<circle cx="841.793" cy="67.5518" r="4.13793" fill="#EDF4F8" fill-opacity="0.2"/>
<circle cx="841.793" cy="79.9656" r="4.13793" fill="#EDF4F8" fill-opacity="0.2"/>
<circle cx="841.793" cy="92.3794" r="4.13793" fill="#EDF4F8" fill-opacity="0.2"/>
<circle cx="841.793" cy="104.793" r="4.13793" fill="#EDF4F8" fill-opacity="0.2"/>
<circle cx="841.793" cy="117.207" r="4.13793" fill="#EDF4F8" fill-opacity="0.2"/>
<circle cx="841.793" cy="129.621" r="4.13793" fill="#EDF4F8" fill-opacity="0.2"/>
<circle cx="841.793" cy="142.034" r="4.13793" fill="#EDF4F8" fill-opacity="0.2"/>
<circle cx="841.793" cy="154.448" r="4.13793" fill="#EDF4F8" fill-opacity="0.2"/>
<circle cx="841.793" cy="166.862" r="4.13793" fill="#EDF4F8" fill-opacity="0.2"/>
<circle cx="854.207" cy="55.1379" r="4.13793" fill="#EDF4F8" fill-opacity="0.2"/>
<circle cx="854.207" cy="67.5518" r="4.13793" fill="#EDF4F8" fill-opacity="0.2"/>
<circle cx="854.207" cy="79.9656" r="4.13793" fill="#EDF4F8" fill-opacity="0.2"/>
<circle cx="854.207" cy="92.3794" r="4.13793" fill="#EDF4F8" fill-opacity="0.2"/>
<circle cx="854.207" cy="104.793" r="4.13793" fill="#EDF4F8" fill-opacity="0.2"/>
<circle cx="854.207" cy="117.207" r="4.13793" fill="#EDF4F8" fill-opacity="0.2"/>
<circle cx="854.207" cy="129.621" r="4.13793" fill="#EDF4F8" fill-opacity="0.2"/>
<circle cx="854.207" cy="142.034" r="4.13793" fill="#EDF4F8" fill-opacity="0.2"/>
<circle cx="854.207" cy="154.448" r="4.13793" fill="#EDF4F8" fill-opacity="0.2"/>
<circle cx="854.207" cy="166.862" r="4.13793" fill="#EDF4F8" fill-opacity="0.2"/>
<circle cx="866.621" cy="55.1379" r="4.13793" fill="#EDF4F8" fill-opacity="0.2"/>
<circle cx="866.621" cy="67.5518" r="4.13793" fill="#EDF4F8" fill-opacity="0.2"/>
<circle cx="866.621" cy="79.9656" r="4.13793" fill="#EDF4F8" fill-opacity="0.2"/>
<circle cx="866.621" cy="92.3794" r="4.13793" fill="#EDF4F8" fill-opacity="0.2"/>
<circle cx="866.621" cy="104.793" r="4.13793" fill="#EDF4F8" fill-opacity="0.2"/>
<circle cx="866.621" cy="117.207" r="4.13793" fill="#EDF4F8" fill-opacity="0.2"/>
<circle cx="866.621" cy="129.621" r="4.13793" fill="#EDF4F8" fill-opacity="0.2"/>
<circle cx="866.621" cy="142.034" r="4.13793" fill="#EDF4F8" fill-opacity="0.2"/>
<circle cx="866.621" cy="154.448" r="4.13793" fill="#EDF4F8" fill-opacity="0.2"/>
<circle cx="866.621" cy="166.862" r="4.13793" fill="#EDF4F8" fill-opacity="0.2"/>
<circle cx="879.034" cy="55.1379" r="4.13793" fill="#EDF4F8" fill-opacity="0.2"/>
<circle cx="879.034" cy="67.5518" r="4.13793" fill="#EDF4F8" fill-opacity="0.2"/>
<circle cx="879.034" cy="79.9656" r="4.13793" fill="#EDF4F8" fill-opacity="0.2"/>
<circle cx="879.034" cy="92.3794" r="4.13793" fill="#EDF4F8" fill-opacity="0.2"/>
<circle cx="879.034" cy="104.793" r="4.13793" fill="#EDF4F8" fill-opacity="0.2"/>
<circle cx="879.034" cy="117.207" r="4.13793" fill="#EDF4F8" fill-opacity="0.2"/>
<circle cx="879.034" cy="129.621" r="4.13793" fill="#EDF4F8" fill-opacity="0.2"/>
<circle cx="879.034" cy="142.034" r="4.13793" fill="#EDF4F8" fill-opacity="0.2"/>
<circle cx="879.034" cy="154.448" r="4.13793" fill="#EDF4F8" fill-opacity="0.2"/>
<circle cx="879.034" cy="166.862" r="4.13793" fill="#EDF4F8" fill-opacity="0.2"/>
<circle cx="891.448" cy="55.1379" r="4.13793" fill="#EDF4F8" fill-opacity="0.2"/>
<circle cx="891.448" cy="67.5518" r="4.13793" fill="#EDF4F8" fill-opacity="0.2"/>
<circle cx="891.448" cy="79.9656" r="4.13793" fill="#EDF4F8" fill-opacity="0.2"/>
<circle cx="891.448" cy="92.3794" r="4.13793" fill="#EDF4F8" fill-opacity="0.2"/>
<circle cx="891.448" cy="104.793" r="4.13793" fill="#EDF4F8" fill-opacity="0.2"/>
<circle cx="891.448" cy="117.207" r="4.13793" fill="#EDF4F8" fill-opacity="0.2"/>
<circle cx="891.448" cy="129.621" r="4.13793" fill="#EDF4F8" fill-opacity="0.2"/>
<circle cx="891.448" cy="142.034" r="4.13793" fill="#EDF4F8" fill-opacity="0.2"/>
<circle cx="891.448" cy="154.448" r="4.13793" fill="#EDF4F8" fill-opacity="0.2"/>
<circle cx="891.448" cy="166.862" r="4.13793" fill="#EDF4F8" fill-opacity="0.2"/>
<circle cx="4.13793" cy="4.13793" r="4.13793" fill="#EDF4F8" fill-opacity="0.2"/>
<circle cx="4.13793" cy="16.5518" r="4.13793" fill="#EDF4F8" fill-opacity="0.2"/>
<circle cx="4.13793" cy="28.9656" r="4.13793" fill="#EDF4F8" fill-opacity="0.2"/>
<circle cx="4.13793" cy="41.3794" r="4.13793" fill="#EDF4F8" fill-opacity="0.2"/>
<circle cx="4.13793" cy="53.7932" r="4.13793" fill="#EDF4F8" fill-opacity="0.2"/>
<circle cx="4.13793" cy="66.2068" r="4.13793" fill="#EDF4F8" fill-opacity="0.2"/>
<circle cx="4.13793" cy="78.6206" r="4.13793" fill="#EDF4F8" fill-opacity="0.2"/>
<circle cx="4.13793" cy="91.0344" r="4.13793" fill="#EDF4F8" fill-opacity="0.2"/>
<circle cx="4.13793" cy="103.448" r="4.13793" fill="#EDF4F8" fill-opacity="0.2"/>
<circle cx="4.13793" cy="115.862" r="4.13793" fill="#EDF4F8" fill-opacity="0.2"/>
<circle cx="16.5518" cy="4.13793" r="4.13793" fill="#EDF4F8" fill-opacity="0.2"/>
<circle cx="16.5518" cy="16.5518" r="4.13793" fill="#EDF4F8" fill-opacity="0.2"/>
<circle cx="16.5518" cy="28.9656" r="4.13793" fill="#EDF4F8" fill-opacity="0.2"/>
<circle cx="16.5518" cy="41.3794" r="4.13793" fill="#EDF4F8" fill-opacity="0.2"/>
<circle cx="16.5518" cy="53.7932" r="4.13793" fill="#EDF4F8" fill-opacity="0.2"/>
<circle cx="16.5518" cy="66.2068" r="4.13793" fill="#EDF4F8" fill-opacity="0.2"/>
<circle cx="16.5518" cy="78.6206" r="4.13793" fill="#EDF4F8" fill-opacity="0.2"/>
<circle cx="16.5518" cy="91.0344" r="4.13793" fill="#EDF4F8" fill-opacity="0.2"/>
<circle cx="16.5518" cy="103.448" r="4.13793" fill="#EDF4F8" fill-opacity="0.2"/>
<circle cx="16.5518" cy="115.862" r="4.13793" fill="#EDF4F8" fill-opacity="0.2"/>
<circle cx="28.9656" cy="4.13793" r="4.13793" fill="#EDF4F8" fill-opacity="0.2"/>
<circle cx="28.9656" cy="16.5518" r="4.13793" fill="#EDF4F8" fill-opacity="0.2"/>
<circle cx="28.9656" cy="28.9656" r="4.13793" fill="#EDF4F8" fill-opacity="0.2"/>
<circle cx="28.9656" cy="41.3794" r="4.13793" fill="#EDF4F8" fill-opacity="0.2"/>
<circle cx="28.9656" cy="53.7932" r="4.13793" fill="#EDF4F8" fill-opacity="0.2"/>
<circle cx="28.9656" cy="66.2068" r="4.13793" fill="#EDF4F8" fill-opacity="0.2"/>
<circle cx="28.9656" cy="78.6206" r="4.13793" fill="#EDF4F8" fill-opacity="0.2"/>
<circle cx="28.9656" cy="91.0344" r="4.13793" fill="#EDF4F8" fill-opacity="0.2"/>
<circle cx="28.9656" cy="103.448" r="4.13793" fill="#EDF4F8" fill-opacity="0.2"/>
<circle cx="28.9656" cy="115.862" r="4.13793" fill="#EDF4F8" fill-opacity="0.2"/>
<circle cx="41.3793" cy="4.13793" r="4.13793" fill="#EDF4F8" fill-opacity="0.2"/>
<circle cx="41.3793" cy="16.5518" r="4.13793" fill="#EDF4F8" fill-opacity="0.2"/>
<circle cx="41.3793" cy="28.9656" r="4.13793" fill="#EDF4F8" fill-opacity="0.2"/>
<circle cx="41.3793" cy="41.3794" r="4.13793" fill="#EDF4F8" fill-opacity="0.2"/>
<circle cx="41.3793" cy="53.7932" r="4.13793" fill="#EDF4F8" fill-opacity="0.2"/>
<circle cx="41.3793" cy="66.2068" r="4.13793" fill="#EDF4F8" fill-opacity="0.2"/>
<circle cx="41.3793" cy="78.6206" r="4.13793" fill="#EDF4F8" fill-opacity="0.2"/>
<circle cx="41.3793" cy="91.0344" r="4.13793" fill="#EDF4F8" fill-opacity="0.2"/>
<circle cx="41.3793" cy="103.448" r="4.13793" fill="#EDF4F8" fill-opacity="0.2"/>
<circle cx="41.3793" cy="115.862" r="4.13793" fill="#EDF4F8" fill-opacity="0.2"/>
<circle cx="53.7931" cy="4.13793" r="4.13793" fill="#EDF4F8" fill-opacity="0.2"/>
<circle cx="53.7931" cy="16.5518" r="4.13793" fill="#EDF4F8" fill-opacity="0.2"/>
<circle cx="53.7931" cy="28.9656" r="4.13793" fill="#EDF4F8" fill-opacity="0.2"/>
<circle cx="53.7931" cy="41.3794" r="4.13793" fill="#EDF4F8" fill-opacity="0.2"/>
<circle cx="53.7931" cy="53.7932" r="4.13793" fill="#EDF4F8" fill-opacity="0.2"/>
<circle cx="53.7931" cy="66.2068" r="4.13793" fill="#EDF4F8" fill-opacity="0.2"/>
<circle cx="53.7931" cy="78.6206" r="4.13793" fill="#EDF4F8" fill-opacity="0.2"/>
<circle cx="53.7931" cy="91.0344" r="4.13793" fill="#EDF4F8" fill-opacity="0.2"/>
<circle cx="53.7931" cy="103.448" r="4.13793" fill="#EDF4F8" fill-opacity="0.2"/>
<circle cx="53.7931" cy="115.862" r="4.13793" fill="#EDF4F8" fill-opacity="0.2"/>
<circle cx="66.2069" cy="4.13793" r="4.13793" fill="#EDF4F8" fill-opacity="0.2"/>
<circle cx="66.2069" cy="16.5518" r="4.13793" fill="#EDF4F8" fill-opacity="0.2"/>
<circle cx="66.2069" cy="28.9656" r="4.13793" fill="#EDF4F8" fill-opacity="0.2"/>
<circle cx="66.2069" cy="41.3794" r="4.13793" fill="#EDF4F8" fill-opacity="0.2"/>
<circle cx="66.2069" cy="53.7932" r="4.13793" fill="#EDF4F8" fill-opacity="0.2"/>
<circle cx="66.2069" cy="66.2068" r="4.13793" fill="#EDF4F8" fill-opacity="0.2"/>
<circle cx="66.2069" cy="78.6206" r="4.13793" fill="#EDF4F8" fill-opacity="0.2"/>
<circle cx="66.2069" cy="91.0344" r="4.13793" fill="#EDF4F8" fill-opacity="0.2"/>
<circle cx="66.2069" cy="103.448" r="4.13793" fill="#EDF4F8" fill-opacity="0.2"/>
<circle cx="66.2069" cy="115.862" r="4.13793" fill="#EDF4F8" fill-opacity="0.2"/>
<circle cx="78.6207" cy="4.13793" r="4.13793" fill="#EDF4F8" fill-opacity="0.2"/>
<circle cx="78.6207" cy="16.5518" r="4.13793" fill="#EDF4F8" fill-opacity="0.2"/>
<circle cx="78.6207" cy="28.9656" r="4.13793" fill="#EDF4F8" fill-opacity="0.2"/>
<circle cx="78.6207" cy="41.3794" r="4.13793" fill="#EDF4F8" fill-opacity="0.2"/>
<circle cx="78.6207" cy="53.7932" r="4.13793" fill="#EDF4F8" fill-opacity="0.2"/>
<circle cx="78.6207" cy="66.2068" r="4.13793" fill="#EDF4F8" fill-opacity="0.2"/>
<circle cx="78.6207" cy="78.6206" r="4.13793" fill="#EDF4F8" fill-opacity="0.2"/>
<circle cx="78.6207" cy="91.0344" r="4.13793" fill="#EDF4F8" fill-opacity="0.2"/>
<circle cx="78.6207" cy="103.448" r="4.13793" fill="#EDF4F8" fill-opacity="0.2"/>
<circle cx="78.6207" cy="115.862" r="4.13793" fill="#EDF4F8" fill-opacity="0.2"/>
<circle cx="91.0345" cy="4.13793" r="4.13793" fill="#EDF4F8" fill-opacity="0.2"/>
<circle cx="91.0345" cy="16.5518" r="4.13793" fill="#EDF4F8" fill-opacity="0.2"/>
<circle cx="91.0345" cy="28.9656" r="4.13793" fill="#EDF4F8" fill-opacity="0.2"/>
<circle cx="91.0345" cy="41.3794" r="4.13793" fill="#EDF4F8" fill-opacity="0.2"/>
<circle cx="91.0345" cy="53.7932" r="4.13793" fill="#EDF4F8" fill-opacity="0.2"/>
<circle cx="91.0345" cy="66.2068" r="4.13793" fill="#EDF4F8" fill-opacity="0.2"/>
<circle cx="91.0345" cy="78.6206" r="4.13793" fill="#EDF4F8" fill-opacity="0.2"/>
<circle cx="91.0345" cy="91.0344" r="4.13793" fill="#EDF4F8" fill-opacity="0.2"/>
<circle cx="91.0345" cy="103.448" r="4.13793" fill="#EDF4F8" fill-opacity="0.2"/>
<circle cx="91.0345" cy="115.862" r="4.13793" fill="#EDF4F8" fill-opacity="0.2"/>
<circle cx="103.448" cy="4.13793" r="4.13793" fill="#EDF4F8" fill-opacity="0.2"/>
<circle cx="103.448" cy="16.5518" r="4.13793" fill="#EDF4F8" fill-opacity="0.2"/>
<circle cx="103.448" cy="28.9656" r="4.13793" fill="#EDF4F8" fill-opacity="0.2"/>
<circle cx="103.448" cy="41.3794" r="4.13793" fill="#EDF4F8" fill-opacity="0.2"/>
<circle cx="103.448" cy="53.7932" r="4.13793" fill="#EDF4F8" fill-opacity="0.2"/>
<circle cx="103.448" cy="66.2068" r="4.13793" fill="#EDF4F8" fill-opacity="0.2"/>
<circle cx="103.448" cy="78.6206" r="4.13793" fill="#EDF4F8" fill-opacity="0.2"/>
<circle cx="103.448" cy="91.0344" r="4.13793" fill="#EDF4F8" fill-opacity="0.2"/>
<circle cx="103.448" cy="103.448" r="4.13793" fill="#EDF4F8" fill-opacity="0.2"/>
<circle cx="103.448" cy="115.862" r="4.13793" fill="#EDF4F8" fill-opacity="0.2"/>
</svg>
