<svg width="745" height="745" viewBox="0 0 745 745" fill="none" xmlns="http://www.w3.org/2000/svg">
<g filter="url(#filter0_d_32_23)">
<path d="M120 100C120 77.9086 137.909 60 160 60H409C528.294 60 625 156.707 625 276V525C625 547.091 607.091 565 585 565H180C146.863 565 120 538.137 120 505V100Z" fill="#5074F3"/>
<path d="M135 100C135 86.1929 146.193 75 160 75H409C520.009 75 610 164.991 610 276V525C610 538.807 598.807 550 585 550H180C155.147 550 135 529.853 135 505V100Z" stroke="white" stroke-width="30"/>
</g>
<defs>
<filter id="filter0_d_32_23" x="0" y="0" width="745" height="745" filterUnits="userSpaceOnUse" color-interpolation-filters="sRGB">
<feFlood flood-opacity="0" result="BackgroundImageFix"/>
<feColorMatrix in="SourceAlpha" type="matrix" values="0 0 0 0 0 0 0 0 0 0 0 0 0 0 0 0 0 0 127 0" result="hardAlpha"/>
<feOffset dy="60"/>
<feGaussianBlur stdDeviation="60"/>
<feComposite in2="hardAlpha" operator="out"/>
<feColorMatrix type="matrix" values="0 0 0 0 1 0 0 0 0 0.384 0 0 0 0 0.0375 0 0 0 0.2 0"/>
<feBlend mode="normal" in2="BackgroundImageFix" result="effect1_dropShadow_32_23"/>
<feBlend mode="normal" in="SourceGraphic" in2="effect1_dropShadow_32_23" result="shape"/>
</filter>
</defs>
</svg>
